<svg width="15" height="14" viewBox="0 0 15 14" fill="none" xmlns="http://www.w3.org/2000/svg"><path d="M12.6562 8.75h-.9374c-.1244 0-.2436.04609-.3315.12814-.0879.08205-.1373.19333-.1373.30936V12.25H1.875V3.5h4.21875c.12432 0 .24355-.04609.33146-.12814.0879-.08205.13729-.19333.13729-.30936v-.875c0-.11603-.04939-.22731-.13729-.30936C6.3373 1.79609 6.21807 1.75 6.09375 1.75h-4.6875c-.37296 0-.730646.13828-.994369.38442C.148158 2.38056 0 2.7144 0 3.0625v9.625c0 .3481.148158.6819.411881.9281.263723.2461.621409.3844.994369.3844H11.7188c.3729 0 .7306-.1383.9943-.3844.2637-.2462.4119-.58.4119-.9281v-3.5c0-.11603-.0494-.22731-.1373-.30936-.0879-.08205-.2071-.12814-.3315-.12814zM14.2969 0h-3.75c-.6261 0-.93899.708477-.4981 1.12109l1.0468.977-7.14052 6.66203c-.06555.06096-.11756.13341-.15305.21318-.03549.07977-.05376.16529-.05376.25166s.01827.17189.05376.25166c.03549.07977.0875.15222.15305.21318l.66416.6188c.06532.0612.14294.1097.22841.1428.08546.0332.17709.0502.26964.0502.09254 0 .18417-.017.26963-.0502.08547-.0331.16309-.0816.22841-.1428l7.13697-6.66313 1.0465.97562C14.2383 5.03125 15 4.74414 15 4.15625v-3.5c0-.174048-.0741-.340968-.2059-.464039C14.6622.069141 14.4834 0 14.2969 0z" fill="#000"/></svg>